<svg xmlns="http://www.w3.org/2000/svg" fill="none" viewBox="0 0 300 300"><path fill="#ab86f2" d="M181.91 82.37c1.16-3.09 2.43-5.98 3.4-8.05a4.2 4.2 0 0 1 3.18-2.42q2.94-.43 6.26-.43t6.26.43a4.2 4.2 0 0 1 3.2 2.42c.95 2.07 2.22 4.96 3.38 8.05-3.67-.13-7.9-.2-12.84-.2s-9.17.07-12.84.2m49.2 3.9c-1.62-1.22-4.8-2.58-14.38-3.39a115 115 0 0 0-4.84-12.12 12.6 12.6 0 0 0-9.66-7.24 52 52 0 0 0-7.48-.52q-3.93 0-7.48.52a12.6 12.6 0 0 0-9.65 7.24c-1.62 3.48-3.44 7.8-4.85 12.12-9.58.81-12.76 2.17-14.38 3.38-2.5 1.87-7.47 8.03-7.47 28.78 0 20.76 4.98 26.91 7.47 28.78 2.5 1.88 8.7 4.1 36.36 4.1 27.67 0 33.86-2.22 36.36-4.1s7.47-8.02 7.47-28.78c0-20.75-4.98-26.9-7.47-28.78"/><path fill="#ecdfef" d="M142.45 63c-9 .1-25.76.53-37.42 2.42-21.89 3.55-26.13 23.17-26.71 38.04a69 69 0 0 0-9.73 1.36c-6.34 1.42-9.05 9.29-5.14 14.7 5.65 7.85 12.41 15.07 17.38 20.01a9.83 9.83 0 0 0 14 0c4.97-4.94 11.73-12.16 17.39-20 3.9-5.42 1.19-13.3-5.15-14.7a70 70 0 0 0-10.53-1.43c.72-15.06 4.85-19 11.4-20.07 10.37-1.68 26.09-2.09 34.6-2.18a6.1 6.1 0 0 0 6.04-6.07l.05-5.9a6.1 6.1 0 0 0-6.18-6.18"/><path fill="#ab86f2" d="M88.99 172.1c1.16-3.1 2.43-5.99 3.39-8.06a4.2 4.2 0 0 1 3.2-2.42 44 44 0 0 1 6.25-.43q3.31 0 6.26.43a4.2 4.2 0 0 1 3.19 2.42 121 121 0 0 1 3.39 8.06c-3.67-.13-7.9-.2-12.84-.2s-9.17.07-12.84.2m49.2 3.89c-1.62-1.22-4.8-2.57-14.38-3.38a115 115 0 0 0-4.85-12.12 12.6 12.6 0 0 0-9.65-7.25 52 52 0 0 0-7.48-.51q-3.94 0-7.48.51a12.6 12.6 0 0 0-9.66 7.25 115 115 0 0 0-4.84 12.12c-9.58.8-12.76 2.16-14.38 3.38-2.5 1.87-7.47 8.03-7.47 28.78s4.97 26.9 7.47 28.78c2.5 1.87 8.69 4.1 36.36 4.1s33.86-2.23 36.36-4.1 7.47-8.03 7.47-28.78-4.98-26.9-7.47-28.78"/><path fill="#ecdfef" d="M239.19 177.49c-5.66-7.85-12.42-15.08-17.39-20.01a9.83 9.83 0 0 0-14 0c-4.97 4.94-11.73 12.16-17.39 20-3.9 5.42-1.19 13.3 5.15 14.7 3.28.74 6.8 1.18 10.53 1.43-.72 15.06-4.85 19-11.4 20.07-10.37 1.68-26.09 2.09-34.6 2.18a6.1 6.1 0 0 0-6.04 6.06l-.05 5.92a6.1 6.1 0 0 0 6.18 6.17c9-.1 25.76-.53 37.42-2.42 21.89-3.56 26.13-23.18 26.71-38.04a68 68 0 0 0 9.73-1.36c6.34-1.42 9.05-9.29 5.15-14.7"/></svg>