<svg xmlns="http://www.w3.org/2000/svg" fill="none" viewBox="0 0 300 300"><path fill="#ecdfef" d="M82.26 108.21c0-8.25 6.68-14.93 14.93-14.93h100.64c8.25 0 14.93 6.68 14.93 14.93v69.28a3.9 3.9 0 0 1-3.89 3.9H184.3a9.96 9.96 0 0 0-9.93 9.92c0 .78-.62 1.4-1.4 1.4H125.6c-.67 0-1.22-.47-1.37-1.12a13.4 13.4 0 0 0-12.99-10.2h-25.1a3.9 3.9 0 0 1-3.88-3.9zm162.81 73.17h-13.13a3.9 3.9 0 0 1-3.9-3.9v-69.27A30.2 30.2 0 0 0 197.84 78H97.18a30.2 30.2 0 0 0-30.21 30.21v69.28a3.9 3.9 0 0 1-3.9 3.9h-5.7c-7.22 0-13.27 5.72-13.38 12.94a28.14 28.14 0 0 0 28.06 28.5H230.4a24.7 24.7 0 0 0 24.6-24.61v-6.9a9.96 9.96 0 0 0-9.93-9.94"/><path fill="#ab86f2" d="M179.1 143.24a7.9 7.9 0 0 0-10.12 4.7 20.8 20.8 0 0 1-19.48 13.63 20.8 20.8 0 0 1-19.48-13.63 7.9 7.9 0 0 0-14.82 5.43 36.7 36.7 0 0 0 34.3 23.99 36.7 36.7 0 0 0 34.3-24 7.9 7.9 0 0 0-4.7-10.12m-46.02-7.41c6.45 0 11.68-7.28 11.68-16.27s-5.23-16.27-11.68-16.27-11.68 7.29-11.68 16.27 5.23 16.27 11.68 16.27m32.84 0c6.45 0 11.68-7.28 11.68-16.27s-5.23-16.27-11.68-16.27-11.68 7.29-11.68 16.27 5.23 16.27 11.68 16.27"/></svg>