<svg xmlns="http://www.w3.org/2000/svg" fill="none" viewBox="0 0 300 300"><path fill="#ab86f2" d="M189.08 155.92a39.15 39.15 0 0 0-41.65-39.07c-20.1 1.25-36.19 18.06-36.63 38.2a39 39 0 0 0 16.33 32.66 9 9 0 0 1 3.69 7.37v12.29a7 7 0 0 0 7 7h24.4a7 7 0 0 0 7-7v-12.42a9 9 0 0 1 3.66-7.34 39 39 0 0 0 16.2-31.69m-39.06 84.78a11.56 11.56 0 0 1-11.56-11.56v-3.04a5.2 5.2 0 0 1 5.2-5.2h12.72a5.2 5.2 0 0 1 5.2 5.2v3.03c0 6.39-5.18 11.56-11.56 11.56"/><path fill="#ecdfef" d="M231.37 190.79a15 15 0 0 1-7.27-15.83 74 74 0 0 0 1.42-14.32c0-4.73-.48-9.55-1.42-14.32a15 15 0 0 1 7.27-15.82l3.44-2a8.4 8.4 0 0 0 3.48-10.64 96 96 0 0 0-6.3-12.08 8.4 8.4 0 0 0-11.33-2.85l-3.9 2.26a15 15 0 0 1-7.57 2.03 14.8 14.8 0 0 1-9.7-3.6 75 75 0 0 0-24.94-14.37 14.9 14.9 0 0 1-10-14.17V68.6a8.36 8.36 0 0 0-7.74-8.36 97 97 0 0 0-13.75 0 8.36 8.36 0 0 0-7.74 8.37v6.47c0 6.42-4.02 12.12-10 14.17-9.21 3.16-17.6 8-24.94 14.36a14.8 14.8 0 0 1-9.7 3.6c-2.65 0-5.27-.7-7.57-2.02L79.33 103A8.4 8.4 0 0 0 68 105.86a96 96 0 0 0-6.3 12.08 8.4 8.4 0 0 0 3.49 10.64l3.31 1.92a15 15 0 0 1 7.26 15.82 74 74 0 0 0-1.41 14.32c0 4.74.47 9.55 1.41 14.32a15 15 0 0 1-7.26 15.82 8.4 8.4 0 0 0-3.19 11.25 96 96 0 0 0 7.26 11.4 8.4 8.4 0 0 0 10.98 2.3c10.28-6 21.79-12.7 28.69-16.74a5.24 5.24 0 0 0 1.16-8.17 51 51 0 0 1-14.2-42.63c2.96-23.04 21.88-41.61 45-44.17a51.3 51.3 0 0 1 57.08 50.93 51 51 0 0 1-14.57 35.8 5.3 5.3 0 0 0 1.03 8.34l28.69 16.7a8.4 8.4 0 0 0 10.97-2.28 96 96 0 0 0 7.28-11.4 8.4 8.4 0 0 0-3.19-11.25z"/></svg>