<svg xmlns="http://www.w3.org/2000/svg" fill="none" viewBox="0 0 300 300"><path fill="#ab86f2" d="M133 104.01h-28.6a2.6 2.6 0 0 1-2.54-3.04l7.55-41.81c.48-2.71-2.95-4.3-4.7-2.17l-55.75 67.88a4.2 4.2 0 0 0 3.24 6.86h28.6a2.58 2.58 0 0 1 2.54 3.04l-7.54 41.81c-.5 2.71 2.95 4.3 4.7 2.17l55.74-67.88a4.2 4.2 0 0 0-3.24-6.86"/><path fill="#ecdfef" d="M153.14 207.92a13.6 13.6 0 0 1-3.9 16.3 13.5 13.5 0 0 1-11.55 2.5 13.5 13.5 0 0 1-8.91-19.15 6.5 6.5 0 0 1 4.48-3.37l10.68-2.3a6.6 6.6 0 0 1 5.7 1.4 14 14 0 0 1 3.5 4.62m-8.89-104.34 2.2 3.6a8.45 8.45 0 0 1-.68 9.75l-60.2 73.29a3.36 3.36 0 0 1-5.47-.38 3.36 3.36 0 0 0-4.61-1.12l-9.23 5.63a3.36 3.36 0 0 0-1.11 4.61l16.8 27.54a3.36 3.36 0 0 0 4.62 1.12l9.22-5.62a3.36 3.36 0 0 0 1.12-4.62l-.42-.68a3.36 3.36 0 0 1 2.16-5.03l7.63-1.65a2.94 2.94 0 0 1 3.56 2.92 31.2 31.2 0 0 0 8.73 22.28 31.13 31.13 0 0 0 50.34-8.25 31.7 31.7 0 0 0-.07-26.68 2.93 2.93 0 0 1 2.06-4.06l20.46-4.57a8.4 8.4 0 0 1 9 3.85l2.6 4.28a4.9 4.9 0 0 0 6.74 1.63l6.59-4.01a4.9 4.9 0 0 0 1.63-6.74l-58.7-96.22a4.9 4.9 0 0 0-6.75-1.63l-6.58 4.02a4.9 4.9 0 0 0-1.64 6.74"/><path fill="#ab86f2" d="m213.13 137.83 23.7-14.46a4.6 4.6 0 0 0 1.54-6.34l-4.32-7.08a4.6 4.6 0 0 0-6.34-1.54L204 122.88a4.6 4.6 0 0 0-1.54 6.34l4.32 7.07a4.6 4.6 0 0 0 6.34 1.54m7.67 29.63 27.37-4.65a4.6 4.6 0 0 0 3.77-5.32l-1.39-8.18a4.6 4.6 0 0 0-5.32-3.78l-27.37 4.66a4.6 4.6 0 0 0-3.78 5.32l1.4 8.17a4.6 4.6 0 0 0 5.31 3.78m-9.88-83.11-6.62-4.97a4.6 4.6 0 0 0-6.47.92l-16.65 22.22a4.6 4.6 0 0 0 .93 6.45l6.63 4.98a4.6 4.6 0 0 0 6.46-.93l16.65-22.2a4.6 4.6 0 0 0-.92-6.47"/></svg>