<svg xmlns="http://www.w3.org/2000/svg" fill="none" viewBox="0 0 300 300"><path fill="#ab86f2" d="M159.69 113.47a25 25 0 0 0 10.18-7.79 5.65 5.65 0 0 1 6.9-1.7 61.3 61.3 0 0 1 31.31 35.3 5.36 5.36 0 0 0 6.38 3.53l4.52-1.15a5.3 5.3 0 0 0 3.76-6.8 76.6 76.6 0 0 0-44.83-47.07 5.8 5.8 0 0 1-3.54-3.99 25 25 0 0 0-4.84-9.53 25.3 25.3 0 0 0-29.49-7.23 25.22 25.22 0 0 0-10.1 38.44 25.3 25.3 0 0 0 29.75 8m-54.17 60.28a25 25 0 0 0-11.84-4.93 5.7 5.7 0 0 1-4.91-5.25q-.17-2.16-.17-4.33a61 61 0 0 1 14.6-39.76 5.35 5.35 0 0 0-.23-7.26l-3.3-3.31a5.3 5.3 0 0 0-7.75.22 76 76 0 0 0-18.62 50.1q0 5.94.91 11.75a5.7 5.7 0 0 1-1.72 4.86 25 25 0 0 0-5.84 8.94 25.3 25.3 0 0 0 8.44 29.17 25.22 25.22 0 0 0 38.37-10.45 25.3 25.3 0 0 0-7.94-29.75m101.08-4.99a25.3 25.3 0 0 0-21.8 21.73c-.58 4.53.07 8.85 1.63 12.7 1 2.45.24 5.3-1.95 6.78a61.4 61.4 0 0 1-46.37 9.52 5.34 5.34 0 0 0-6.2 3.75l-1.28 4.5a5.3 5.3 0 0 0 3.99 6.65 76.9 76.9 0 0 0 63.35-15.35 5.9 5.9 0 0 1 5.22-.96c3.31.9 6.89 1.16 10.6.57a25.3 25.3 0 0 0 21.04-21.9 25.22 25.22 0 0 0-28.23-28"/><path fill="#ecdfef" d="M164.6 145.34c-5.25-6.2-5.18-22.42-14.6-22.42s-9.35 16.22-14.6 22.42c-6.2 5.25-22.41 5.18-22.41 14.6s16.22 9.34 22.42 14.6c5.24 6.19 5.17 22.4 14.59 22.4s9.35-16.21 14.6-22.4c6.2-5.26 22.41-5.18 22.41-14.6s-16.22-9.35-22.42-14.6"/></svg>