<svg xmlns="http://www.w3.org/2000/svg" fill="none" viewBox="0 0 300 300"><path fill="#ab86f2" d="M154.39 191.82c-1.85.62-4.48 1.49-5.84 2.2-.72 1.37-1.6 4-2.2 5.84-2.4 7.19-6.4 19.2-19.09 19.2s-16.69-12.01-19.08-19.2c-.62-1.84-1.49-4.47-2.2-5.83-1.37-.72-4-1.6-5.84-2.21-7.19-2.4-19.2-6.4-19.2-19.08 0-12.69 12.01-16.7 19.2-19.08 1.84-.62 4.47-1.5 5.83-2.21.72-1.36 1.6-4 2.21-5.84 2.4-7.18 6.4-19.2 19.08-19.2 12.69 0 16.7 12.02 19.08 19.2a48 48 0 0 0 2.21 5.84c1.36.72 4 1.59 5.84 2.2 7.18 2.4 19.2 6.4 19.2 19.09s-12.02 16.69-19.2 19.08m24.4-70.62c-3.66-3.66-10.96-12.73-51.53-12.73s-47.87 9.07-51.53 12.73S63 132.17 63 172.74s9.07 47.87 12.73 51.53S86.69 237 127.26 237s47.87-9.07 51.54-12.73c3.66-3.66 12.72-10.96 12.72-51.53s-9.06-47.88-12.72-51.54"/><path fill="#ecdfef" d="M224.27 75.73C220.61 72.07 213.31 63 172.74 63s-47.88 9.07-51.54 12.73c-2.6 2.6-7.94 7.06-10.8 24.02 4.97-.39 10.55-.61 16.86-.61 42.94 0 52.95 10.18 57.76 15.08l.76.76c4.9 4.8 15.08 14.82 15.08 57.76 0 6.3-.23 11.89-.62 16.86 16.97-2.86 21.43-8.2 24.03-10.8 3.66-3.66 12.73-10.97 12.73-51.54s-9.07-47.87-12.73-51.53m-82.42 82.42c-5.25-6.2-5.17-22.4-14.59-22.4s-9.34 16.2-14.59 22.4c-6.19 5.25-22.4 5.17-22.4 14.59s16.21 9.34 22.4 14.58c5.25 6.2 5.18 22.41 14.6 22.41 9.4 0 9.33-16.21 14.58-22.4 6.2-5.25 22.4-5.18 22.4-14.6 0-9.4-16.2-9.33-22.4-14.58"/></svg>