<svg xmlns="http://www.w3.org/2000/svg" fill="none" viewBox="0 0 300 300"><path fill="#ecdfef" d="m229.66 169.2-38.87-38.86c-5.75-5.76-15.6-1.68-15.6 6.46v9.73c0 4.5-3.64 8.15-8.14 8.15h-31.5a2.8 2.8 0 0 0-2.79 2.8v6.4c0 9.84-8.02 17.84-17.88 17.84-4.7 0-9.15-1.86-12.53-5.24l-20.3-20.3a5 5 0 0 0-3.62-1.5H68.1a8.1 8.1 0 0 0-8.1 8.12v25.75a8.1 8.1 0 0 0 8.11 8.1h98.94c4.5 0 8.14 3.66 8.14 8.16v9.73c0 8.14 9.84 12.22 15.6 6.46l38.87-38.87a9.14 9.14 0 0 0 0-12.92"/><path fill="#ecdfef" d="M175.2 204.8v9.73c0 8.14 9.84 12.22 15.6 6.46l38.86-38.86a9.14 9.14 0 0 0 0-12.93l-38.87-38.86c-5.75-5.76-15.6-1.68-15.6 6.46v9.73c0 4.5-3.65 8.15-8.14 8.15 0 0 8.14 45.62 8.14 50.12"/><path fill="#ab86f2" d="M184.4 118.97c4.7 0 9.15 1.86 12.53 5.23l20.3 20.3c.96.97 2.26 1.5 3.62 1.5h10.32a8.1 8.1 0 0 0 8.1-8.1v-25.75a8.1 8.1 0 0 0-8.1-8.11h-98.94a8.15 8.15 0 0 1-8.14-8.15v-9.74c0-8.13-9.85-12.21-15.6-6.46l-38.87 38.87a9.14 9.14 0 0 0 0 12.92l38.87 38.87c5.75 5.75 15.6 1.68 15.6-6.46v-9.74c0-4.5 3.64-8.14 8.14-8.14h34.29v-9.21c0-9.83 8.02-17.83 17.88-17.83"/></svg>